<svg xmlns="http://www.w3.org/2000/svg" xmlns:xlink="http://www.w3.org/1999/xlink" width="120" zoomAndPan="magnify" viewBox="0 0 90 60" height="80" preserveAspectRatio="xMidYMid meet" version="1.0"><defs><clipPath id="ec53348f47"><path d="M 0.0859375 57 L 0.0859375 3 C 0.0859375 2.171875 0.378906 1.464844 0.964844 0.878906 C 1.550781 0.292969 2.253906 0 3.082031 0 L 86.917969 0 C 87.746094 0 88.449219 0.292969 89.035156 0.878906 C 89.621094 1.464844 89.910156 2.171875 89.910156 3 L 89.910156 57 C 89.910156 57.828125 89.621094 58.535156 89.035156 59.121094 C 88.449219 59.707031 87.746094 60 86.917969 60 L 3.082031 60 C 2.253906 60 1.550781 59.707031 0.964844 59.121094 C 0.378906 58.535156 0.0859375 57.828125 0.0859375 57 Z M 0.0859375 57 " clip-rule="nonzero"/></clipPath><clipPath id="a9a0fcb467"><path d="M 0 57 L 90 57 L 90 60 L 0 60 Z M 0 57 " clip-rule="nonzero"/></clipPath><clipPath id="ce5d19985b"><path d="M 0.0859375 57 L 0.0859375 3 C 0.0859375 2.171875 0.378906 1.464844 0.964844 0.878906 C 1.550781 0.292969 2.253906 0 3.082031 0 L 86.917969 0 C 87.746094 0 88.449219 0.292969 89.035156 0.878906 C 89.621094 1.464844 89.910156 2.171875 89.910156 3 L 89.910156 57 C 89.910156 57.828125 89.621094 58.535156 89.035156 59.121094 C 88.449219 59.707031 87.746094 60 86.917969 60 L 3.082031 60 C 2.253906 60 1.550781 59.707031 0.964844 59.121094 C 0.378906 58.535156 0.0859375 57.828125 0.0859375 57 Z M 0.0859375 57 " clip-rule="nonzero"/></clipPath><clipPath id="a8451fed14"><path d="M 13 34 L 71 34 L 71 48 L 13 48 Z M 13 34 " clip-rule="nonzero"/></clipPath><clipPath id="45525e7e4b"><path d="M 0.0859375 57 L 0.0859375 3 C 0.0859375 2.171875 0.378906 1.464844 0.964844 0.878906 C 1.550781 0.292969 2.253906 0 3.082031 0 L 86.917969 0 C 87.746094 0 88.449219 0.292969 89.035156 0.878906 C 89.621094 1.464844 89.910156 2.171875 89.910156 3 L 89.910156 57 C 89.910156 57.828125 89.621094 58.535156 89.035156 59.121094 C 88.449219 59.707031 87.746094 60 86.917969 60 L 3.082031 60 C 2.253906 60 1.550781 59.707031 0.964844 59.121094 C 0.378906 58.535156 0.0859375 57.828125 0.0859375 57 Z M 0.0859375 57 " clip-rule="nonzero"/></clipPath><clipPath id="f600ab9d8b"><path d="M 65 33 L 77 33 L 77 45 L 65 45 Z M 65 33 " clip-rule="nonzero"/></clipPath><clipPath id="6116395fd7"><path d="M 0.0859375 57 L 0.0859375 3 C 0.0859375 2.171875 0.378906 1.464844 0.964844 0.878906 C 1.550781 0.292969 2.253906 0 3.082031 0 L 86.917969 0 C 87.746094 0 88.449219 0.292969 89.035156 0.878906 C 89.621094 1.464844 89.910156 2.171875 89.910156 3 L 89.910156 57 C 89.910156 57.828125 89.621094 58.535156 89.035156 59.121094 C 88.449219 59.707031 87.746094 60 86.917969 60 L 3.082031 60 C 2.253906 60 1.550781 59.707031 0.964844 59.121094 C 0.378906 58.535156 0.0859375 57.828125 0.0859375 57 Z M 0.0859375 57 " clip-rule="nonzero"/></clipPath><clipPath id="650903c411"><path d="M 53 13 L 68 13 L 68 35 L 53 35 Z M 53 13 " clip-rule="nonzero"/></clipPath><clipPath id="b53d7066b0"><path d="M 0.0859375 57 L 0.0859375 3 C 0.0859375 2.171875 0.378906 1.464844 0.964844 0.878906 C 1.550781 0.292969 2.253906 0 3.082031 0 L 86.917969 0 C 87.746094 0 88.449219 0.292969 89.035156 0.878906 C 89.621094 1.464844 89.910156 2.171875 89.910156 3 L 89.910156 57 C 89.910156 57.828125 89.621094 58.535156 89.035156 59.121094 C 88.449219 59.707031 87.746094 60 86.917969 60 L 3.082031 60 C 2.253906 60 1.550781 59.707031 0.964844 59.121094 C 0.378906 58.535156 0.0859375 57.828125 0.0859375 57 Z M 0.0859375 57 " clip-rule="nonzero"/></clipPath><clipPath id="6863ca4d86"><path d="M 39 12 L 52 12 L 52 29 L 39 29 Z M 39 12 " clip-rule="nonzero"/></clipPath><clipPath id="d5d6d30ca4"><path d="M 0.0859375 57 L 0.0859375 3 C 0.0859375 2.171875 0.378906 1.464844 0.964844 0.878906 C 1.550781 0.292969 2.253906 0 3.082031 0 L 86.917969 0 C 87.746094 0 88.449219 0.292969 89.035156 0.878906 C 89.621094 1.464844 89.910156 2.171875 89.910156 3 L 89.910156 57 C 89.910156 57.828125 89.621094 58.535156 89.035156 59.121094 C 88.449219 59.707031 87.746094 60 86.917969 60 L 3.082031 60 C 2.253906 60 1.550781 59.707031 0.964844 59.121094 C 0.378906 58.535156 0.0859375 57.828125 0.0859375 57 Z M 0.0859375 57 " clip-rule="nonzero"/></clipPath><clipPath id="e72c52fef6"><path d="M 24 12 L 38 12 L 38 35 L 24 35 Z M 24 12 " clip-rule="nonzero"/></clipPath><clipPath id="2c06e6dbc4"><path d="M 0.0859375 57 L 0.0859375 3 C 0.0859375 2.171875 0.378906 1.464844 0.964844 0.878906 C 1.550781 0.292969 2.253906 0 3.082031 0 L 86.917969 0 C 87.746094 0 88.449219 0.292969 89.035156 0.878906 C 89.621094 1.464844 89.910156 2.171875 89.910156 3 L 89.910156 57 C 89.910156 57.828125 89.621094 58.535156 89.035156 59.121094 C 88.449219 59.707031 87.746094 60 86.917969 60 L 3.082031 60 C 2.253906 60 1.550781 59.707031 0.964844 59.121094 C 0.378906 58.535156 0.0859375 57.828125 0.0859375 57 Z M 0.0859375 57 " clip-rule="nonzero"/></clipPath><clipPath id="81075b6ce2"><path d="M 0 0 L 90 0 L 90 6 L 0 6 Z M 0 0 " clip-rule="nonzero"/></clipPath><clipPath id="61ad9f4b3b"><rect x="0" width="90" y="0" height="6"/></clipPath></defs><rect x="-9" width="108" fill="#ffffff" y="-6" height="72" fill-opacity="1"/><rect x="-9" width="108" fill="#333e47" y="-6" height="72" fill-opacity="1"/><g clip-path="url(#ec53348f47)"><path fill="#333e48" d="M 3.082031 0 L 86.917969 0 C 87.316406 0 87.695312 0.0742188 88.0625 0.226562 C 88.429688 0.378906 88.753906 0.597656 89.035156 0.878906 C 89.316406 1.160156 89.53125 1.484375 89.683594 1.851562 C 89.835938 2.21875 89.910156 2.601562 89.910156 3 L 89.910156 57 C 89.910156 57.398438 89.835938 57.78125 89.683594 58.148438 C 89.53125 58.515625 89.316406 58.839844 89.035156 59.121094 C 88.753906 59.402344 88.429688 59.621094 88.0625 59.773438 C 87.695312 59.925781 87.316406 60 86.917969 60 L 3.082031 60 C 2.683594 60 2.304688 59.925781 1.9375 59.773438 C 1.570312 59.621094 1.246094 59.402344 0.964844 59.121094 C 0.683594 58.839844 0.46875 58.515625 0.316406 58.148438 C 0.164062 57.78125 0.0859375 57.398438 0.0859375 57 L 0.0859375 3 C 0.0859375 2.601562 0.164062 2.21875 0.316406 1.851562 C 0.46875 1.484375 0.683594 1.160156 0.964844 0.878906 C 1.246094 0.597656 1.570312 0.378906 1.9375 0.226562 C 2.304688 0.0742188 2.683594 0 3.082031 0 Z M 3.082031 0 " fill-opacity="1" fill-rule="nonzero"/></g><g clip-path="url(#a9a0fcb467)"><g clip-path="url(#ce5d19985b)"><path fill="#ff9900" d="M 0.0859375 57 L 89.910156 57 C 89.910156 58.65625 88.570312 60 86.917969 60 L 3.082031 60 C 1.429688 60 0.0859375 58.65625 0.0859375 57 Z M 0.0859375 57 " fill-opacity="1" fill-rule="evenodd"/></g></g><g clip-path="url(#a8451fed14)"><g clip-path="url(#45525e7e4b)"><path fill="#ff9900" d="M 70.035156 37.855469 C 69.703125 37.773438 69.410156 37.855469 69.105469 37.980469 C 63.734375 40.21875 58.15625 41.652344 52.371094 42.335938 C 50.597656 42.542969 48.8125 42.675781 47.027344 42.722656 C 43.773438 42.808594 40.519531 42.625 37.289062 42.199219 C 35.113281 41.910156 32.949219 41.507812 30.808594 40.996094 C 26.28125 39.914062 21.914062 38.355469 17.757812 36.277344 C 16.679688 35.738281 15.628906 35.144531 14.566406 34.570312 C 14.101562 34.316406 13.804688 34.390625 13.5625 34.828125 L 13.5625 35.035156 C 13.707031 35.230469 13.832031 35.449219 14.015625 35.617188 C 18.417969 39.535156 23.382812 42.492188 28.9375 44.488281 C 31.617188 45.449219 34.367188 46.15625 37.167969 46.617188 C 38.882812 46.898438 40.59375 47.078125 42.332031 47.164062 C 42.695312 47.175781 43.0625 47.1875 43.429688 47.214844 C 43.515625 47.214844 43.601562 47.238281 43.6875 47.25 L 45.851562 47.25 C 45.9375 47.238281 46.023438 47.214844 46.109375 47.214844 C 47.933594 47.164062 49.753906 46.996094 51.566406 46.726562 C 54.183594 46.335938 56.75 45.742188 59.257812 44.9375 C 62.878906 43.769531 66.316406 42.210938 69.460938 40.058594 C 69.800781 39.828125 70.15625 39.597656 70.4375 39.304688 C 70.964844 38.769531 70.71875 38.039062 70.035156 37.855469 Z M 70.035156 37.855469 " fill-opacity="1" fill-rule="nonzero"/></g></g><g clip-path="url(#f600ab9d8b)"><g clip-path="url(#6116395fd7)"><path fill="#ff9900" d="M 76.4375 34.296875 C 76.34375 33.789062 75.957031 33.597656 75.527344 33.449219 C 74.839844 33.222656 74.132812 33.113281 73.414062 33.050781 C 72.089844 32.941406 70.769531 33.003906 69.472656 33.246094 C 68.03125 33.511719 66.664062 33.984375 65.449219 34.828125 C 65.304688 34.925781 65.160156 35.046875 65.078125 35.191406 C 65.003906 35.300781 64.992188 35.46875 65.015625 35.601562 C 65.054688 35.757812 65.222656 35.796875 65.378906 35.785156 C 65.449219 35.785156 65.523438 35.785156 65.59375 35.769531 L 67.9375 35.515625 C 69.089844 35.410156 70.242188 35.335938 71.394531 35.421875 C 71.886719 35.457031 72.367188 35.566406 72.835938 35.6875 C 73.351562 35.820312 73.582031 36.21875 73.605469 36.738281 C 73.640625 37.546875 73.460938 38.320312 73.257812 39.09375 C 72.835938 40.652344 72.257812 42.164062 71.660156 43.664062 C 71.621094 43.761719 71.574219 43.867188 71.5625 43.964844 C 71.515625 44.265625 71.683594 44.449219 71.972656 44.386719 C 72.140625 44.351562 72.332031 44.253906 72.453125 44.132812 C 72.894531 43.699219 73.351562 43.265625 73.722656 42.78125 C 75.007812 41.113281 75.765625 39.203125 76.210938 37.148438 C 76.292969 36.785156 76.355469 36.410156 76.414062 36.050781 C 76.4375 35.480469 76.4375 34.890625 76.4375 34.296875 Z M 76.4375 34.296875 " fill-opacity="1" fill-rule="nonzero"/></g></g><g clip-path="url(#650903c411)"><g clip-path="url(#b53d7066b0)"><path fill="#ffffff" d="M 53.601562 13.609375 C 53.644531 13.800781 53.699219 13.988281 53.777344 14.175781 C 55.585938 18.65625 57.382812 23.152344 59.203125 27.632812 C 59.355469 28.019531 59.386719 28.339844 59.222656 28.726562 C 58.917969 29.414062 58.6875 30.117188 58.367188 30.792969 C 58.082031 31.398438 57.632812 31.839844 56.976562 32.027344 C 56.515625 32.152344 56.046875 32.171875 55.5625 32.128906 C 55.332031 32.105469 55.101562 32.050781 54.875 32.039062 C 54.566406 32.019531 54.414062 32.160156 54.402344 32.480469 C 54.390625 32.789062 54.390625 33.101562 54.402344 33.398438 C 54.414062 33.90625 54.578125 34.136719 55.082031 34.226562 C 55.597656 34.316406 56.113281 34.402344 56.636719 34.414062 C 58.203125 34.449219 59.453125 33.816406 60.265625 32.4375 C 60.582031 31.898438 60.878906 31.324219 61.109375 30.738281 C 63.277344 25.207031 65.4375 19.664062 67.59375 14.121094 C 67.660156 13.953125 67.714844 13.789062 67.738281 13.609375 C 67.78125 13.347656 67.660156 13.214844 67.398438 13.203125 C 66.785156 13.191406 66.179688 13.203125 65.566406 13.203125 C 65.226562 13.203125 64.988281 13.355469 64.867188 13.675781 C 64.820312 13.800781 64.765625 13.929688 64.722656 14.054688 L 61.535156 23.296875 C 61.304688 23.96875 61.074219 24.632812 60.824219 25.347656 C 60.777344 25.25 60.757812 25.195312 60.734375 25.140625 C 59.550781 21.835938 58.367188 18.523438 57.183594 15.222656 C 57 14.703125 56.800781 14.175781 56.605469 13.65625 C 56.507812 13.378906 56.308594 13.214844 56.011719 13.214844 C 55.3125 13.203125 54.609375 13.191406 53.910156 13.203125 C 53.667969 13.203125 53.546875 13.378906 53.601562 13.609375 Z M 53.601562 13.609375 " fill-opacity="1" fill-rule="nonzero"/></g></g><g clip-path="url(#6863ca4d86)"><g clip-path="url(#d5d6d30ca4)"><path fill="#ffffff" d="M 39.785156 24.886719 C 39.65625 23.914062 39.710938 22.953125 40.160156 22.035156 C 40.71875 20.875 41.671875 20.160156 42.855469 19.738281 C 43.839844 19.398438 44.871094 19.332031 45.910156 19.386719 C 46.90625 19.441406 47.882812 19.605469 48.847656 19.839844 C 48.878906 19.851562 48.925781 19.851562 48.96875 19.851562 C 48.980469 19.792969 48.988281 19.761719 48.988281 19.71875 C 48.980469 18.957031 48.988281 18.183594 48.957031 17.421875 C 48.933594 16.878906 48.8125 16.351562 48.476562 15.90625 C 48.082031 15.398438 47.519531 15.222656 46.929688 15.136719 C 45.789062 14.96875 44.652344 15.058594 43.523438 15.265625 C 42.800781 15.410156 42.074219 15.609375 41.363281 15.796875 C 40.9375 15.917969 40.75 15.796875 40.738281 15.34375 C 40.726562 15.046875 40.75 14.738281 40.738281 14.429688 C 40.726562 14.0625 40.890625 13.820312 41.222656 13.710938 C 41.769531 13.523438 42.304688 13.3125 42.863281 13.167969 C 43.730469 12.9375 44.617188 12.828125 45.515625 12.78125 C 45.613281 12.78125 45.703125 12.761719 45.789062 12.75 L 46.886719 12.75 C 47.226562 12.792969 47.554688 12.828125 47.882812 12.871094 C 48.585938 12.972656 49.261719 13.160156 49.878906 13.523438 C 50.941406 14.152344 51.445312 15.136719 51.621094 16.328125 C 51.675781 16.726562 51.695312 17.121094 51.695312 17.519531 L 51.695312 27.324219 C 51.695312 27.402344 51.695312 27.492188 51.683594 27.578125 C 51.664062 27.832031 51.5 28 51.246094 28.011719 C 50.742188 28.019531 50.25 28.019531 49.746094 28.011719 C 49.484375 28 49.308594 27.8125 49.253906 27.523438 C 49.1875 27.191406 49.144531 26.863281 49.089844 26.507812 C 49.023438 26.550781 48.980469 26.585938 48.933594 26.617188 C 47.851562 27.523438 46.621094 28.121094 45.230469 28.332031 C 44.027344 28.507812 42.84375 28.429688 41.757812 27.820312 C 40.617188 27.183594 39.972656 26.175781 39.785156 24.886719 Z M 43.863281 26.035156 C 44.367188 26.230469 44.878906 26.253906 45.40625 26.199219 C 46.679688 26.066406 47.804688 25.570312 48.835938 24.820312 C 48.933594 24.753906 48.980469 24.675781 48.980469 24.542969 C 48.96875 24.113281 48.980469 23.671875 48.980469 23.238281 C 48.980469 22.796875 48.96875 22.355469 48.980469 21.914062 C 48.980469 21.761719 48.933594 21.695312 48.78125 21.671875 C 48.015625 21.574219 47.257812 21.429688 46.492188 21.351562 C 45.722656 21.285156 44.957031 21.320312 44.210938 21.5625 C 43.476562 21.804688 42.929688 22.246094 42.710938 23.007812 C 42.535156 23.605469 42.535156 24.199219 42.722656 24.796875 C 42.898438 25.402344 43.292969 25.8125 43.863281 26.035156 Z M 43.863281 26.035156 " fill-opacity="1" fill-rule="nonzero"/></g></g><g clip-path="url(#e72c52fef6)"><g clip-path="url(#2c06e6dbc4)"><path fill="#ffffff" d="M 24.039062 13.941406 C 24.039062 13.300781 24.152344 13.179688 24.796875 13.191406 L 25.859375 13.191406 C 26.289062 13.203125 26.496094 13.378906 26.5625 13.808594 C 26.605469 14.0625 26.636719 14.316406 26.679688 14.570312 C 26.691406 14.617188 26.714844 14.648438 26.726562 14.703125 C 26.945312 14.539062 27.152344 14.363281 27.371094 14.207031 C 28.414062 13.445312 29.574219 12.960938 30.855469 12.804688 C 30.988281 12.78125 31.117188 12.773438 31.25 12.75 L 32.015625 12.75 C 32.3125 12.792969 32.621094 12.816406 32.917969 12.882812 C 34.867188 13.28125 36.160156 14.484375 36.9375 16.292969 C 37.574219 17.761719 37.738281 19.320312 37.683594 20.898438 C 37.636719 22.324219 37.363281 23.703125 36.730469 24.984375 C 35.875 26.671875 34.582031 27.832031 32.707031 28.207031 C 30.636719 28.617188 28.753906 28.164062 27.109375 26.785156 C 27.054688 26.738281 27 26.683594 26.902344 26.609375 L 26.902344 33.308594 C 26.902344 33.398438 26.902344 33.496094 26.890625 33.585938 C 26.878906 33.851562 26.714844 34.039062 26.441406 34.039062 C 25.792969 34.050781 25.148438 34.050781 24.5 34.039062 C 24.238281 34.027344 24.074219 33.851562 24.050781 33.574219 C 24.039062 33.488281 24.039062 33.386719 24.039062 33.300781 Z M 26.890625 24.421875 C 26.878906 24.554688 26.933594 24.640625 27.03125 24.730469 C 28.074219 25.46875 29.191406 25.96875 30.472656 26.023438 C 32.335938 26.109375 33.757812 25.347656 34.382812 23.382812 C 34.679688 22.46875 34.757812 21.515625 34.757812 20.554688 C 34.757812 19.507812 34.667969 18.480469 34.308594 17.496094 C 33.714844 15.875 32.597656 15.203125 31.230469 15.101562 C 29.683594 14.992188 28.304688 15.445312 27.042969 16.328125 C 26.933594 16.40625 26.890625 16.480469 26.890625 16.625 L 26.890625 20.523438 C 26.890625 21.828125 26.902344 23.117188 26.890625 24.421875 Z M 26.890625 24.421875 " fill-opacity="1" fill-rule="nonzero"/></g></g><g transform="matrix(1, 0, 0, 1, 0, 54)"><g clip-path="url(#61ad9f4b3b)"><g clip-path="url(#81075b6ce2)"><rect x="-19.8" width="129.6" fill="#333e48" height="86.4" y="-67.2" fill-opacity="1"/></g></g></g></svg>