<svg xmlns="http://www.w3.org/2000/svg" xmlns:xlink="http://www.w3.org/1999/xlink" width="120" zoomAndPan="magnify" viewBox="0 0 90 60" height="80" preserveAspectRatio="xMidYMid meet" version="1.0"><rect x="-9" width="108" fill="#ffffff" y="-6" height="72" fill-opacity="1"/><rect x="-9" width="108" fill="#ffffff" y="-6" height="72" fill-opacity="1"/><path stroke-linecap="butt" transform="matrix(1.62931, 0, 0, 1.62931, -2.137025, -2.437885)" fill-opacity="1" fill="#ffffff" fill-rule="nonzero" stroke-linejoin="miter" d="M 3.999196 0.498914 L 54.001186 0.498914 C 54.228947 0.498914 54.456709 0.522889 54.682072 0.568441 C 54.907436 0.611596 55.128005 0.678725 55.338984 0.767432 C 55.55236 0.853742 55.753749 0.961629 55.945548 1.088695 C 56.134949 1.21816 56.312364 1.362009 56.475393 1.525038 C 56.638422 1.688067 56.782271 1.865481 56.909338 2.054883 C 57.038802 2.246682 57.146689 2.44807 57.232999 2.661447 C 57.321706 2.872426 57.388835 3.090597 57.43199 3.318358 C 57.477542 3.543722 57.49912 3.769086 57.49912 3.999245 L 57.49912 36.000899 C 57.49912 36.228661 57.477542 36.456422 57.43199 36.681786 C 57.388835 36.907149 57.321706 37.127718 57.232999 37.338697 C 57.146689 37.552073 57.038802 37.753462 56.909338 37.945261 C 56.782271 38.134663 56.638422 38.312077 56.475393 38.475106 C 56.312364 38.638135 56.134949 38.781984 55.945548 38.909051 C 55.753749 39.038515 55.55236 39.146402 55.338984 39.232712 C 55.128005 39.321419 54.907436 39.388548 54.682072 39.431703 C 54.456709 39.477255 54.228947 39.498833 54.001186 39.498833 L 3.999196 39.498833 C 3.769037 39.498833 3.543674 39.477255 3.31831 39.431703 C 3.092946 39.388548 2.872377 39.321419 2.661398 39.232712 C 2.448022 39.146402 2.246633 39.038515 2.054834 38.909051 C 1.865433 38.781984 1.688019 38.638135 1.524989 38.475106 C 1.36196 38.312077 1.218111 38.134663 1.091044 37.945261 C 0.96158 37.753462 0.853693 37.552073 0.767384 37.338697 C 0.678677 37.127718 0.611547 36.907149 0.568392 36.681786 C 0.52284 36.456422 0.498865 36.228661 0.498865 36.000899 L 0.498865 3.999245 C 0.498865 3.769086 0.52284 3.543722 0.568392 3.318358 C 0.611547 3.090597 0.678677 2.872426 0.767384 2.661447 C 0.853693 2.44807 0.96158 2.246682 1.091044 2.054883 C 1.218111 1.865481 1.36196 1.688067 1.524989 1.525038 C 1.688019 1.362009 1.865433 1.21816 2.054834 1.088695 C 2.246633 0.961629 2.448022 0.853742 2.661398 0.767432 C 2.872377 0.678725 3.092946 0.611596 3.31831 0.568441 C 3.543674 0.522889 3.769037 0.498914 3.999196 0.498914 Z M 3.999196 0.498914 " stroke="#ffffff" stroke-width="1" stroke-opacity="1" stroke-miterlimit="4"/><path fill="#000000" d="M 26.5 21.882812 C 25.8125 22.703125 24.714844 23.351562 23.613281 23.261719 C 23.476562 22.148438 24.015625 20.96875 24.644531 20.238281 C 25.332031 19.390625 26.535156 18.789062 27.507812 18.742188 C 27.625 19.902344 27.175781 21.035156 26.5 21.882812 Z M 27.5 23.480469 C 26.53125 23.425781 25.644531 23.773438 24.929688 24.058594 C 24.472656 24.242188 24.082031 24.394531 23.785156 24.394531 C 23.453125 24.394531 23.050781 24.234375 22.59375 24.050781 C 21.996094 23.8125 21.316406 23.535156 20.601562 23.550781 C 18.964844 23.574219 17.441406 24.511719 16.601562 26.003906 C 14.886719 28.992188 16.15625 33.417969 17.816406 35.851562 C 18.632812 37.054688 19.605469 38.375 20.886719 38.328125 C 21.453125 38.308594 21.859375 38.132812 22.277344 37.953125 C 22.761719 37.746094 23.265625 37.53125 24.050781 37.53125 C 24.808594 37.53125 25.289062 37.742188 25.75 37.941406 C 26.1875 38.132812 26.609375 38.316406 27.234375 38.304688 C 28.5625 38.285156 29.398438 37.101562 30.214844 35.898438 C 31.089844 34.605469 31.476562 33.34375 31.535156 33.152344 L 31.542969 33.128906 C 31.539062 33.128906 31.53125 33.121094 31.511719 33.113281 C 31.21875 32.976562 28.976562 31.941406 28.953125 29.15625 C 28.929688 26.820312 30.730469 25.636719 31.015625 25.449219 C 31.03125 25.4375 31.042969 25.429688 31.050781 25.425781 C 29.902344 23.710938 28.117188 23.527344 27.5 23.480469 Z M 36.699219 38.179688 L 36.699219 20.121094 L 43.398438 20.121094 C 46.859375 20.121094 49.277344 22.53125 49.277344 26.050781 C 49.277344 29.574219 46.8125 32.003906 43.308594 32.003906 L 39.46875 32.003906 L 39.46875 38.179688 Z M 39.46875 22.484375 L 42.667969 22.484375 C 45.070312 22.484375 46.445312 23.78125 46.445312 26.0625 C 46.445312 28.34375 45.070312 29.652344 42.65625 29.652344 L 39.46875 29.652344 Z M 58.429688 36.011719 C 57.695312 37.425781 56.082031 38.316406 54.339844 38.316406 C 51.761719 38.316406 49.964844 36.765625 49.964844 34.425781 C 49.964844 32.109375 51.703125 30.777344 54.925781 30.582031 L 58.382812 30.371094 L 58.382812 29.375 C 58.382812 27.90625 57.433594 27.105469 55.738281 27.105469 C 54.339844 27.105469 53.320312 27.835938 53.113281 28.949219 L 50.617188 28.949219 C 50.695312 26.609375 52.875 24.90625 55.816406 24.90625 C 58.992188 24.90625 61.054688 26.585938 61.054688 29.191406 L 61.054688 38.179688 L 58.488281 38.179688 L 58.488281 36.011719 Z M 55.085938 36.175781 C 53.605469 36.175781 52.667969 35.457031 52.667969 34.355469 C 52.667969 33.222656 53.574219 32.5625 55.300781 32.457031 L 58.382812 32.261719 L 58.382812 33.28125 C 58.382812 34.96875 56.964844 36.175781 55.085938 36.175781 Z M 69.566406 38.886719 C 68.453125 42.046875 67.183594 43.089844 64.476562 43.089844 C 64.273438 43.089844 63.585938 43.066406 63.425781 43.019531 L 63.425781 40.855469 C 63.597656 40.878906 64.019531 40.902344 64.238281 40.902344 C 65.464844 40.902344 66.152344 40.378906 66.574219 39.023438 L 66.828125 38.226562 L 62.128906 25.078125 L 65.027344 25.078125 L 68.292969 35.746094 L 68.351562 35.746094 L 71.617188 25.078125 L 74.433594 25.078125 Z M 69.566406 38.886719 " fill-opacity="1" fill-rule="evenodd"/></svg>