<svg xmlns="http://www.w3.org/2000/svg" xmlns:xlink="http://www.w3.org/1999/xlink" width="120" zoomAndPan="magnify" viewBox="0 0 90 60" height="80" preserveAspectRatio="xMidYMid meet" version="1.0"><rect x="-9" width="108" fill="#ffffff" y="-6" height="72" fill-opacity="1"/><rect x="-9" width="108" fill="#ffffff" y="-6" height="72" fill-opacity="1"/><path fill="#000000" d="M 59.707031 46.460938 C 57.867188 49.210938 55.914062 51.898438 52.941406 51.941406 C 49.96875 52.007812 49.011719 50.1875 45.640625 50.1875 C 42.246094 50.1875 41.203125 51.898438 38.386719 52.007812 C 35.480469 52.117188 33.28125 49.078125 31.417969 46.394531 C 27.625 40.914062 24.71875 30.820312 28.625 24.027344 C 30.554688 20.65625 34.015625 18.527344 37.765625 18.460938 C 40.605469 18.414062 43.3125 20.390625 45.0625 20.390625 C 46.792969 20.390625 50.078125 18.015625 53.519531 18.371094 C 54.960938 18.4375 58.996094 18.949219 61.59375 22.765625 C 61.394531 22.898438 56.777344 25.605469 56.824219 31.21875 C 56.890625 37.917969 62.703125 40.160156 62.769531 40.183594 C 62.703125 40.335938 61.839844 43.375 59.707031 46.460938 Z M 47.039062 10.960938 C 48.660156 9.121094 51.34375 7.722656 53.5625 7.632812 C 53.851562 10.230469 52.808594 12.847656 51.253906 14.710938 C 49.722656 16.597656 47.195312 18.0625 44.710938 17.859375 C 44.375 15.308594 45.617188 12.648438 47.039062 10.960938 Z M 47.039062 10.960938 " fill-opacity="1" fill-rule="nonzero"/></svg>